<?xml version="1.0" encoding="utf-8"?>
<!-- Generator: Adobe Illustrator 23.0.1, SVG Export Plug-In . SVG Version: 6.00 Build 0)  -->
<svg version="1.1" id="Layer_1" xmlns="http://www.w3.org/2000/svg" xmlns:xlink="http://www.w3.org/1999/xlink" x="0px" y="0px"
	 viewBox="0 0 548 315" style="enable-background:new 0 0 548 315;" xml:space="preserve">
<style type="text/css">
	.st0{opacity:0.2;fill:#22BD94;}
	.st1{opacity:0.2;fill:url(#SVGID_1_);}
</style>
<path class="st0" d="M547.77,243.33c-0.02,39.2-31.79,70.98-70.99,70.99H329.96c-3.22,0.01-6.44-0.22-9.63-0.69
	c-3.85,0.46-7.72,0.7-11.59,0.69H101.9C46.65,315.02,1.29,270.8,0.59,215.55s43.52-100.61,98.77-101.31c0.84-0.01,1.69-0.01,2.53,0
	h40.74C151.7,42.75,217-7.86,288.49,1.2c55.56,7.04,100.42,48.75,111.5,103.65h12.65c36.21-0.01,65.57,29.33,65.59,65.54
	c0,0.67,0,1.33,0,1.96C516.86,173.12,547.78,204.68,547.77,243.33z"/>
<linearGradient id="SVGID_1_" gradientUnits="userSpaceOnUse" x1="318.7465" y1="381.1445" x2="359.5648" y2="-360.6171" gradientTransform="matrix(1 0 0 -1 -33.12 305.9332)">
	<stop  offset="0" style="stop-color:#000000;stop-opacity:0"/>
	<stop  offset="0.99" style="stop-color:#000000"/>
</linearGradient>
<path class="st1" d="M547.77,243.33c-0.02,39.2-31.79,70.98-70.99,70.99H329.96c-3.22,0.01-6.44-0.22-9.63-0.69
	c-3.85,0.46-7.72,0.7-11.59,0.69H107.89c-47.9-27.55-64.39-88.71-36.84-136.61c17.85-31.04,50.94-50.17,86.75-50.16h40.75
	c8.31-65.18,63.78-114.02,129.49-114.01h1.61c36.35,17.87,62.36,51.6,70.4,91.3h12.65c36.21-0.01,65.57,29.33,65.59,65.54
	c0,0.67,0,1.33,0,1.96C516.9,173.13,547.79,204.69,547.77,243.33z"/>
</svg>
