<svg xmlns="http://www.w3.org/2000/svg" xmlns:xlink="http://www.w3.org/1999/xlink" viewBox="0 0 628.15 411"><defs><style>.cls-1{fill:#22bd94;}.cls-2{fill:url(#linear-gradient);}.cls-3{fill:url(#linear-gradient-2);}.cls-27,.cls-30,.cls-4{opacity:0.69;}.cls-25,.cls-27,.cls-30,.cls-4{isolation:isolate;}.cls-4{fill:url(#linear-gradient-3);}.cls-5{fill:#f4d280;}.cls-6{fill:url(#linear-gradient-4);}.cls-7{fill:url(#linear-gradient-5);}.cls-8{fill:url(#linear-gradient-6);}.cls-9{fill:#156166;}.cls-10{fill:url(#linear-gradient-7);}.cls-11{fill:#14aba1;}.cls-12{fill:url(#linear-gradient-8);}.cls-13{fill:#435276;}.cls-14{fill:url(#linear-gradient-9);}.cls-15{fill:url(#linear-gradient-10);}.cls-16{fill:url(#linear-gradient-11);}.cls-17{fill:url(#linear-gradient-12);}.cls-18,.cls-25{fill:#fff;}.cls-19{fill:#38b87e;}.cls-20{fill:url(#linear-gradient-13);}.cls-21{fill:url(#linear-gradient-14);}.cls-22{fill:url(#linear-gradient-15);}.cls-23{fill:#4f898c;}.cls-24{fill:#f8f8f8;opacity:0.36;}.cls-25{opacity:0.25;}.cls-26{fill:url(#linear-gradient-16);}.cls-27{fill:url(#linear-gradient-17);}.cls-28{fill:url(#linear-gradient-18);}.cls-29{fill:url(#linear-gradient-19);}.cls-30{fill:url(#linear-gradient-20);}.cls-31{fill:url(#linear-gradient-21);}.cls-32{fill:#3f3d56;}.cls-33{fill:url(#linear-gradient-22);}.cls-34{fill:url(#linear-gradient-23);}.cls-35{fill:url(#linear-gradient-24);}.cls-36{fill:url(#linear-gradient-25);}.cls-37{fill:#e6e6e6;}.cls-38{fill:url(#linear-gradient-26);}.cls-39{fill:url(#linear-gradient-27);}.cls-40{fill:url(#linear-gradient-28);}.cls-41{fill:url(#linear-gradient-29);}.cls-42{fill:url(#linear-gradient-30);}.cls-43{fill:url(#linear-gradient-31);}.cls-44{fill:url(#linear-gradient-32);}.cls-45,.cls-53{fill:none;}.cls-46{fill:url(#linear-gradient-33);}.cls-47{fill:url(#linear-gradient-34);}.cls-48{fill:url(#linear-gradient-35);}.cls-49{fill:#f2a700;}.cls-50{fill:url(#linear-gradient-36);}.cls-51{fill:url(#linear-gradient-37);}.cls-52{fill:url(#linear-gradient-38);}.cls-53{stroke:#424a60;stroke-linecap:round;stroke-miterlimit:10;stroke-width:3.11px;}.cls-54{fill:#424a60;}</style><linearGradient id="linear-gradient" x1="252.11" y1="9137.85" x2="277.61" y2="8429.84" gradientTransform="matrix(1.11, 0.07, 0.07, -1, -556.1, 9420.82)" gradientUnits="userSpaceOnUse"><stop offset="0" stop-opacity="0"/><stop offset="0.99"/></linearGradient><linearGradient id="linear-gradient-2" x1="214.97" y1="10224.72" x2="253.05" y2="10224.72" gradientTransform="matrix(1, 0, 0, -1, -44.82, 10294.07)" gradientUnits="userSpaceOnUse"><stop offset="0" stop-color="#ecc4d7"/><stop offset="0.42" stop-color="#efd4d1"/><stop offset="1" stop-color="#f2eac9"/></linearGradient><linearGradient id="linear-gradient-3" x1="169.1" y1="10247.74" x2="180.01" y2="10247.74" gradientTransform="matrix(1, 0, 0, -1, 0, 10299.44)" gradientUnits="userSpaceOnUse"><stop offset="0.02" stop-color="#fff" stop-opacity="0"/><stop offset="0.58" stop-color="#fff" stop-opacity="0.39"/><stop offset="0.68" stop-color="#fff" stop-opacity="0.68"/><stop offset="1" stop-color="#fff"/></linearGradient><linearGradient id="linear-gradient-4" x1="327.35" y1="10112.78" x2="329.2" y2="10069.13" gradientTransform="matrix(1, 0, 0, -1, -44.82, 10294.07)" xlink:href="#linear-gradient"/><linearGradient id="linear-gradient-5" x1="20.14" y1="10075.91" x2="200.6" y2="10075.91" gradientTransform="matrix(1, 0, 0, -1, 0, 10299.44)" xlink:href="#linear-gradient"/><linearGradient id="linear-gradient-6" x1="263.76" y1="9986.83" x2="260.97" y2="10031.41" gradientTransform="matrix(1, 0, 0, -1, -44.82, 10294.07)" xlink:href="#linear-gradient"/><linearGradient id="linear-gradient-7" x1="102.46" y1="9940.53" x2="101.82" y2="9986.9" gradientTransform="matrix(1, 0, 0, -1, 0, 10299.44)" xlink:href="#linear-gradient"/><linearGradient id="linear-gradient-8" x1="133.53" y1="9958.74" x2="143.35" y2="10338.78" gradientTransform="matrix(1, 0, 0, -1, -44.82, 10294.07)" xlink:href="#linear-gradient"/><linearGradient id="linear-gradient-9" x1="267.08" y1="10110.63" x2="268.47" y2="10072.09" gradientTransform="matrix(1, 0, 0, -1, -44.82, 10294.07)" xlink:href="#linear-gradient"/><linearGradient id="linear-gradient-10" x1="281.77" y1="10089.88" x2="287.66" y2="10089.88" gradientTransform="matrix(1, 0, 0, -1, 0, 10299.44)" xlink:href="#linear-gradient"/><linearGradient id="linear-gradient-11" x1="274.39" y1="10089.88" x2="280.27" y2="10089.88" gradientTransform="matrix(1, 0, 0, -1, 0, 10299.44)" xlink:href="#linear-gradient"/><linearGradient id="linear-gradient-12" x1="267.09" y1="10089.88" x2="272.98" y2="10089.88" gradientTransform="matrix(1, 0, 0, -1, 0, 10299.44)" xlink:href="#linear-gradient"/><linearGradient id="linear-gradient-13" x1="326.71" y1="10137.66" x2="523.7" y2="10133.34" gradientTransform="matrix(1, 0, 0, -1, 0, 10299.44)" xlink:href="#linear-gradient"/><linearGradient id="linear-gradient-14" x1="317.37" y1="10179.07" x2="681.99" y2="10171.05" gradientTransform="matrix(1, 0, 0, -1, -44.82, 10294.07)" xlink:href="#linear-gradient"/><linearGradient id="linear-gradient-15" x1="391.4" y1="10094.9" x2="394.42" y2="10033.41" gradientTransform="matrix(1, 0, 0, -1, -44.82, 10294.07)" xlink:href="#linear-gradient"/><linearGradient id="linear-gradient-16" x1="496.73" y1="9892.88" x2="-167.65" y2="9947.18" gradientTransform="matrix(1, 0, 0, -1, -44.82, 10294.07)" gradientUnits="userSpaceOnUse"><stop offset="0" stop-opacity="0"/><stop offset="0.41" stop-opacity="0.41"/><stop offset="0.99"/></linearGradient><linearGradient id="linear-gradient-17" x1="178.94" y1="10227.76" x2="217.02" y2="10227.76" gradientTransform="matrix(1, 0, 0, -1, -44.82, 10294.07)" xlink:href="#linear-gradient-3"/><linearGradient id="linear-gradient-18" x1="254.69" y1="10169.91" x2="198.27" y2="10161.32" gradientTransform="matrix(1, 0, 0, -1, -44.82, 10294.07)" xlink:href="#linear-gradient"/><linearGradient id="linear-gradient-19" x1="193.43" y1="10269.51" x2="218.34" y2="10269.51" xlink:href="#linear-gradient-2"/><linearGradient id="linear-gradient-20" x1="179.41" y1="10232.77" x2="204.79" y2="10244.69" gradientTransform="matrix(1, 0, 0, -1, -44.82, 10294.07)" xlink:href="#linear-gradient-3"/><linearGradient id="linear-gradient-21" x1="193.95" y1="10225.57" x2="244.04" y2="10225.57" xlink:href="#linear-gradient-2"/><linearGradient id="linear-gradient-22" x1="191.74" y1="10127.7" x2="210.54" y2="10127.7" gradientTransform="matrix(1, 0, 0, -1, 0, 10299.44)" xlink:href="#linear-gradient"/><linearGradient id="linear-gradient-23" x1="213.8" y1="10140.93" x2="232.61" y2="10140.93" gradientTransform="matrix(1, 0, 0, -1, 0, 10299.44)" xlink:href="#linear-gradient"/><linearGradient id="linear-gradient-24" x1="801.49" y1="9980.24" x2="805.18" y2="9923.92" gradientTransform="matrix(1, 0, 0, -1, -255.29, 10297.24)" xlink:href="#linear-gradient"/><linearGradient id="linear-gradient-25" x1="804.63" y1="9977.61" x2="803.75" y2="10018.27" gradientTransform="matrix(1, 0, 0, -1, -255.3, 10297.23)" xlink:href="#linear-gradient"/><linearGradient id="linear-gradient-26" x1="555.68" y1="10156.94" x2="574.54" y2="10156.94" gradientTransform="matrix(1, 0, 0, -1, -28.46, 10297.23)" xlink:href="#linear-gradient-2"/><linearGradient id="linear-gradient-27" x1="575.67" y1="10220.79" x2="445.26" y2="10003.35" gradientTransform="matrix(1, 0, 0, -1, -28.46, 10297.23)" xlink:href="#linear-gradient"/><linearGradient id="linear-gradient-28" x1="472.81" y1="10242.98" x2="692.29" y2="10159.73" gradientTransform="matrix(1, 0, 0, -1, -28.46, 10297.23)" xlink:href="#linear-gradient"/><linearGradient id="linear-gradient-29" x1="531.26" y1="10299.51" x2="534.17" y2="10243.63" gradientTransform="matrix(1, 0, 0, -1, -28.46, 10297.23)" gradientUnits="userSpaceOnUse"><stop offset="0" stop-color="#fff" stop-opacity="0"/><stop offset="0.99" stop-color="#fff"/></linearGradient><linearGradient id="linear-gradient-30" x1="583.59" y1="10250.23" x2="430.76" y2="10164.36" gradientTransform="matrix(1, 0, 0, -1, -28.46, 10297.23)" xlink:href="#linear-gradient"/><linearGradient id="linear-gradient-31" x1="802.33" y1="9097.86" x2="811.8" y2="9097.86" gradientTransform="matrix(1.24, -0.03, 0.03, -1.3, -791.93, 11971.02)" xlink:href="#linear-gradient-2"/><linearGradient id="linear-gradient-32" x1="559.2" y1="10212.17" x2="577.02" y2="10212.17" gradientTransform="matrix(1, 0, 0, -1, -28.46, 10297.23)" xlink:href="#linear-gradient-2"/><linearGradient id="linear-gradient-33" x1="511.48" y1="10271.24" x2="554.38" y2="10271.24" xlink:href="#linear-gradient-29"/><linearGradient id="linear-gradient-34" x1="531.72" y1="10293.9" x2="533.95" y2="10273.23" xlink:href="#linear-gradient-29"/><linearGradient id="linear-gradient-35" x1="531.38" y1="10293.06" x2="532.4" y2="10256.52" xlink:href="#linear-gradient-29"/><linearGradient id="linear-gradient-36" x1="4823.32" y1="9944.59" x2="4638.77" y2="9953.04" gradientTransform="translate(5368.26 10297.23) rotate(180)" xlink:href="#linear-gradient"/><linearGradient id="linear-gradient-37" x1="4817.19" y1="9960.78" x2="4816.42" y2="9987.56" gradientTransform="translate(5368.26 10297.23) rotate(180)" xlink:href="#linear-gradient"/><linearGradient id="linear-gradient-38" x1="547.12" y1="10174.52" x2="431.27" y2="9897.99" gradientTransform="matrix(1, 0, 0, -1, -28.46, 10297.23)" xlink:href="#linear-gradient"/></defs><title>system_2</title><g id="Layer_2" data-name="Layer 2"><g id="Layer_2-2" data-name="Layer 2"><polygon id="listek" class="cls-1" points="409.75 360.39 316.97 360.39 316.97 241.79 385.83 240.98 410.81 259.74 409.75 360.39"/><path class="cls-2" d="M628.15,383.51c-27.33,10.79-57.36,16.89-87.07,19.6-55.05,5.12-110.67.15-166.06.57-75.12.53-150.1,10.94-225.1,6-49.86-3.26-101.11-14.61-144-37.51,34.19-24.26,90.86-18.45,131.2-21.08,62.27-4,124.66-7.67,187.18-7.82C426.92,343.05,531.05,352.43,628.15,383.51Z"/><path class="cls-3" d="M178,59.85l3.46,6,24.26-10.8,2.47,3.83S183,84,181.53,83.63s-11.38-17.87-11.38-17.87Z"/><polygon class="cls-1" points="169.1 36.84 180.01 58.2 170.5 66.56 169.1 36.84"/><polygon class="cls-4" points="169.1 36.84 180.01 58.2 170.5 66.56 169.1 36.84"/><polygon class="cls-5" points="190.3 77.09 196.19 36.84 219.72 36.53 211.98 77.4 190.3 77.09"/><path class="cls-1" d="M256.57,215.41h6.92V165.6a12.36,12.36,0,0,1,12.36-12.36h32.28v-6.92H275.82a19.26,19.26,0,0,0-19.25,19.25Z"/><path class="cls-6" d="M256.73,215.41h6.91V165.6A12.36,12.36,0,0,1,276,153.24h32.28v-6.92H276a19.27,19.27,0,0,0-19.24,19.25Z"/><rect class="cls-7" x="20.14" y="109.88" width="180.46" height="227.31" rx="28.48"/><path class="cls-1" d="M191.19,312.51h0a3.47,3.47,0,0,1,3.46-3.46h30.44a12.36,12.36,0,0,0,12.32-12.36V264.45h6.93v32.27A19.25,19.25,0,0,1,225.09,316h-30.4a3.47,3.47,0,0,1-3.5-3.43Z"/><path class="cls-1" d="M320.23,323.41V316.5h-49.8a12.37,12.37,0,0,1-12.37-12.37V271.89h-6.91v32.27a19.26,19.26,0,0,0,19.25,19.25Z"/><path class="cls-8" d="M191.19,312.51h0a3.47,3.47,0,0,1,3.46-3.46h30.44a12.36,12.36,0,0,0,12.32-12.36V264.45h6.93v32.27A19.25,19.25,0,0,1,225.09,316h-30.4a3.47,3.47,0,0,1-3.5-3.43Z"/><path class="cls-9" d="M320.23,323.41V316.5h-49.8a12.37,12.37,0,0,1-12.37-12.37V271.89h-6.91v32.27a19.26,19.26,0,0,0,19.25,19.25Z"/><path class="cls-1" d="M422.4,379.51a11.69,11.69,0,0,1-11.67,11.72H23.63a11.7,11.7,0,0,1-2.32-23.16,12.85,12.85,0,0,1,2.32-.23H410.7A11.7,11.7,0,0,1,422.4,379.51Z"/><rect class="cls-1" x="27.52" y="322.35" width="149.38" height="50.65"/><rect class="cls-10" x="27.52" y="322.35" width="149.38" height="37.14"/><rect class="cls-11" y="109.88" width="180.46" height="227.32" rx="28.48"/><path class="cls-12" d="M180.46,244.44v64.3A28.48,28.48,0,0,1,152,337.22H28.48A28.49,28.49,0,0,1,0,308.72H0V244.42a28.48,28.48,0,0,1,28.48-28.48H152a28.48,28.48,0,0,1,28.48,28.48Z"/><rect class="cls-13" x="215.65" y="206.19" width="74.5" height="70.27"/><rect class="cls-1" x="209.73" y="196.21" width="87.63" height="27.76" rx="7.48"/><rect class="cls-1" x="209.73" y="228.31" width="87.63" height="27.76" rx="7.48"/><rect class="cls-1" x="209.73" y="260.41" width="87.63" height="27.76" rx="7.48"/><path class="cls-1" d="M250.5,196.36h-6.91V146.55a12.36,12.36,0,0,0-12.37-12.36h-37a3.46,3.46,0,0,1-3.46-3.46h0a3.46,3.46,0,0,1,3.46-3.46h37A19.24,19.24,0,0,1,250.5,146.5v49.86Z"/><path class="cls-14" d="M250.5,196.36h-6.91V146.55a12.36,12.36,0,0,0-12.37-12.36h-37a3.46,3.46,0,0,1-3.46-3.46h0a3.46,3.46,0,0,1,3.46-3.46h37A19.24,19.24,0,0,1,250.5,146.5v49.86Z"/><path class="cls-15" d="M284.71,206.62a2.95,2.95,0,1,1-2.94,2.95A2.95,2.95,0,0,1,284.71,206.62Z"/><path class="cls-16" d="M277.33,206.62a2.95,2.95,0,1,1-2.94,2.95A2.95,2.95,0,0,1,277.33,206.62Z"/><path class="cls-17" d="M270,206.62a2.95,2.95,0,1,1-2.94,2.95A2.95,2.95,0,0,1,270,206.62Z"/><path class="cls-11" d="M255.43,75.55H394a13.63,13.63,0,0,0,13.64-13.62h0A28.59,28.59,0,0,0,379.1,33.34H367.41A28.57,28.57,0,0,0,338.84,4.77H320a28.56,28.56,0,0,0-28.58,28.56h0v5.85H275.47a28.57,28.57,0,0,0-28.55,27.55h0a8.51,8.51,0,0,0,8.2,8.81Z"/><path class="cls-1" d="M97,75.55H12.93a6.7,6.7,0,0,1-6.71-6.69h0V67.43a17,17,0,0,1,17-17h7a17,17,0,0,1,17-17H58.51a17,17,0,0,1,17,17h0v3.48h9.5a17,17,0,0,1,17,16.43h0a5.07,5.07,0,0,1-4.88,5.25Z"/><path class="cls-18" d="M31.21,164.32H149.85a8.44,8.44,0,0,1,8.44,8.44h0a8.44,8.44,0,0,1-8.44,8.44H31.21a8.44,8.44,0,0,1-8.44-8.44h0A8.44,8.44,0,0,1,31.21,164.32Z"/><rect class="cls-19" x="26.47" y="167.58" width="88.45" height="11.02" rx="5.51"/><rect class="cls-9" x="304.82" y="109.88" width="83.8" height="105.56" rx="13.22"/><rect class="cls-20" x="345.08" y="109.88" width="43.53" height="105.56" rx="13.22"/><path class="cls-21" d="M388.62,123.11h-83.8A13.19,13.19,0,0,1,318,109.88h57.39A13.19,13.19,0,0,1,388.62,123Z"/><path class="cls-22" d="M388.62,202.22a13.19,13.19,0,0,1-13.19,13.19H318a13.2,13.2,0,0,1-13.19-13.19Z"/><path class="cls-23" d="M411.93,361.83H316.51v-121l70.82-.83L413,259.12Zm-91.77-3.57h88.2L409.42,261l-23.25-17.31-66,.74Z"/><path class="cls-23" d="M413.09,262.06l-21.65.35-3.78-21.13Zm-18.62-3.3,10.61-.58L393,249.68Z"/><rect class="cls-24" x="334.94" y="267.14" width="63.86" height="4.2" rx="2.09"/><rect class="cls-24" x="334.94" y="281" width="63.86" height="4.2" rx="2.09"/><rect class="cls-24" x="334.94" y="294.86" width="63.86" height="4.2" rx="2.09"/><rect class="cls-24" x="334.94" y="308.71" width="63.86" height="4.2" rx="2.09"/><rect class="cls-24" x="334.94" y="322.56" width="63.86" height="4.2" rx="2.09"/><rect class="cls-24" x="334.94" y="336.42" width="63.86" height="4.2" rx="2.09"/><path class="cls-1" d="M210.06,176.68h-18.2a1.53,1.53,0,0,1-1.53-1.54h0a1.53,1.53,0,0,1,1.53-1.53h18.2a14.24,14.24,0,0,0,14.23-14.24V128.78A16.66,16.66,0,0,1,241,112.12h36.46A15.3,15.3,0,0,0,292.7,96.83V72.1h3.08V96.83a18.39,18.39,0,0,1-18.37,18.37H241a13.58,13.58,0,0,0-13.58,13.58h0v30.59A17.31,17.31,0,0,1,210.06,176.68Z"/><path class="cls-1" d="M102.25,108.68h3.07v-1.79A16.65,16.65,0,0,0,88.7,90.26h-16A12.84,12.84,0,0,1,59.87,77.43V74.91H56.8v2.52A15.92,15.92,0,0,0,72.69,93.34h16a13.55,13.55,0,0,1,13.55,13.55Z"/><rect class="cls-25" x="316.53" y="132.71" width="61.7" height="41.56"/><path class="cls-26" d="M364.81,379.74a11.69,11.69,0,0,1-9.33,11.49H23.63a11.7,11.7,0,0,1-2.32-23.16H353.13A11.69,11.69,0,0,1,364.81,379.74Z"/><path class="cls-1" d="M134.12,52.43V98.59h38.07V49.3s.39-15.94-8-15.24S137.67,31,134.12,52.43Z"/><path class="cls-27" d="M134.12,52.43V98.59h38.07V49.3s.39-15.94-8-15.24S137.67,31,134.12,52.43Z"/><path class="cls-18" d="M172.19,98.53s24.73.77,31.74,12.36,16.72,40.87,16.72,40.87l-8.83,3.48-15.79-20Z"/><path class="cls-28" d="M172.19,98.53s24.73.77,31.74,12.36,16.72,40.87,16.72,40.87l-8.83,3.48-15.79-20Z"/><path class="cls-18" d="M134.12,98.53s-3.41,17,5.57,19.78,36.53,5.57,36.53,5.57l13.62,45.2,11.3-5.11s-4.18-49.07-9.75-55.23-19.2-10.21-19.2-10.21Z"/><path class="cls-29" d="M153.47,20.12a28.57,28.57,0,0,1,2.06-6.84,12.22,12.22,0,0,1,10.18-6.47,6,6,0,0,1,1.52.11,5,5,0,0,1,1.52.67,10.54,10.54,0,0,1,4.37,6.88,31.07,31.07,0,0,1,.2,8.34c-.2,3-.76,6.6-3.46,8-1.88.94-4.12.46-6.16-.17a1.53,1.53,0,0,0-1.29,0,1.41,1.41,0,0,0-.48,1c-.46,2.95.49,6-.19,8.92a2.33,2.33,0,0,1-1.05,1.65,2.56,2.56,0,0,1-1.64,0,16.9,16.9,0,0,1-7.14-3.87c-.83-.77-3-2.09-3.3-3.18s1.25-3.44,1.65-4.51A75.83,75.83,0,0,0,153.47,20.12Z"/><path class="cls-30" d="M134.51,52.47l11.77,22.26,12.53-9.28s-9.29-23.19-11.11-24.12-6.27-3.71-8.36-.69S134.12,48.52,134.51,52.47Z"/><path class="cls-31" d="M149.13,73.3s5.11,9.06,7.42,9.29,35.3-14.17,35.3-14.17L197,66.77s1.16-5.58,1.39-6.74,2.09-5.1-.47-5.57-6.49,2.81-6.49,2.81l-1.86,4.65-27.86,8.59-2.86-5Z"/><path class="cls-32" d="M178.84,7.75c1.16-2.66.1-6.36-2.66-7.25-2.27-.74-4.69.55-7.08.6-2,0-4-.82-6-1.06a10.15,10.15,0,0,0-10.71,7.57,8.08,8.08,0,0,1-.61,2.09c-.82,1.49-2.93,2.11-3.34,3.77a4.27,4.27,0,0,0,.33,2.39l2.62,7.81c.29.87,1,1.95,1.84,1.65.48-.17.71-.71.89-1.2l1.76-4.89c1.58-.14,1.24,3.54,2.81,3.3,1-.17.83-1.65.57-2.69a5.24,5.24,0,0,1,4.28-6h0a6.37,6.37,0,0,0,2.25-.38,15.91,15.91,0,0,1,1.39-.92c1.94-.72,4,.9,6.2.06A9.77,9.77,0,0,0,178.84,7.75Z"/><polygon class="cls-1" points="197.43 165.47 199.05 169.89 211.59 169.66 195.8 176.86 192.78 167.1 197.43 165.47"/><polygon class="cls-33" points="196.38 166.06 198.01 170.47 210.54 170.24 194.75 177.43 191.74 167.68 196.38 166.06"/><polygon class="cls-1" points="219.49 152.24 221.11 156.65 233.65 156.42 217.86 163.62 214.84 153.87 219.49 152.24"/><polygon class="cls-34" points="218.44 152.82 220.06 157.24 232.61 157 216.81 164.2 213.8 154.44 218.44 152.82"/><rect class="cls-1" x="502.36" y="315.41" width="88.22" height="11.53"/><rect class="cls-35" x="502.36" y="315.41" width="88.22" height="11.53"/><rect class="cls-18" x="537.81" y="316.35" width="52.7" height="9.78"/><rect class="cls-1" x="513.8" y="308.07" width="70.71" height="7.4"/><rect class="cls-36" x="513.8" y="308.07" width="70.71" height="7.4"/><rect class="cls-18" x="551.99" y="307.95" width="32.53" height="7.52"/><rect class="cls-37" x="502.69" y="299.99" width="88.89" height="8.01"/><rect class="cls-18" x="558.99" y="301.52" width="34.09" height="4.55"/><path class="cls-32" d="M515.46,249.62c.11,6.43,5.23,33.44,5.24,39.88,0,4.23-4.76,4.13-7.57,5.72-1.47.83-3.59,3.4-2.14,4.56,4,.21,13.62-.11,17.66.1.85,0-4-36.52-.68-46.48,2-6,28.32-24.85,26.2-30.56-.6-1.63,4.51-12.19.88-12.23-8.54-.1-17.31.9-20.14,1.85C534.91,212.47,515.29,240.13,515.46,249.62Z"/><path class="cls-32" d="M550.68,210.76a6.21,6.21,0,0,0-3.9,1.21c-1.6,1.5-1.18,4.11-.62,6.23,1.75,6.68,4.42,22,9.76,39.58,5.58,18.37,13.83,38.87,14.35,40.39.23.69.16,1.17.75,1.6s15.55.22,15.68,0c0,0,1.24-3.31-3.52-5.15-1.23-.48-4.58.35-5.14-1.36-4.81-14.66-6.8-46.62-6.26-52.54.68-7.44,3.24-26.45-1.6-30.42C564.88,210.08,556,210.36,550.68,210.76Z"/><path class="cls-5" d="M529.82,215.67c.49,4.12,15.81-.73,17.2-.82,3.07-.2,24.26,1,27-.35,6.47-3.07-10.34-57.55-14.42-60-3.82-2.29-8.48-2.76-12.94-2.65-9.34.24-17.1,4.9-19.71,14.36-1.08,3.91.79,7.93,1.82,11.66C530.3,183.24,529.16,210.13,529.82,215.67Z"/><path class="cls-38" d="M535.54,150.09c-1.26-2.62-4.72-3.35-6.57-5.6-1.71-2.05-1.76-5-1.67-7.65.12-3.52.38-7.18,2.17-10.22s5.58-5.17,8.88-4a10.51,10.51,0,0,1,3.92,3,14.5,14.5,0,0,1,3.3,4.75c1,2.74.52,5.8-.31,8.59s-2,5.52-2.32,8.42c-.22,2.09,0,4.24-.44,6.3s-1.78,4.16-3.85,4.56C535.05,159,536.43,152.05,535.54,150.09Z"/><path class="cls-5" d="M533.17,174c.07,1.39.05,3-1,3.92a3.7,3.7,0,0,1-1.94.76c-3.89.55-44.71-28.12-49.61-49-.18-.75,2.66-2.86,4.89-3.55,1.09-.33,2-.33,2.43.32,15.89,25.63,43,28.6,45.85,29.81a3,3,0,0,1,1.58,2.74C535.83,163.11,533,170.62,533.17,174Z"/><path class="cls-11" d="M556.45,71.72a50,50,0,1,1-3.72-19A50,50,0,0,1,556.45,71.72Z"/><path class="cls-39" d="M530.92,90.13a50,50,0,0,1,.79,7.12c-.06,4.63-2.15,9-5,12.68a63.41,63.41,0,0,1-10.05,9.53c3.64.8,7.43-.31,10.81-1.86a43,43,0,0,0,19.69-18.33,2.91,2.91,0,0,0,.51-2,3.11,3.11,0,0,0-.78-1.26c-2.53-3.12-3.59-7.17-5.55-10.68-1.39-2.47-5.52-7.48-9-5.9C529.1,80.88,530.54,87.31,530.92,90.13Z"/><path class="cls-32" d="M544.07,147.74a2.38,2.38,0,0,0,2-.84c.51-.54.88-1.2,1.36-1.76a23,23,0,0,1,3.58-2.8,10.52,10.52,0,0,0,3.5-5.14,2.26,2.26,0,0,0,0-1.58,3.84,3.84,0,0,0-1-1.15c-1.21-1.19-1.39-3-1.6-4.75s-.63-3.57-2.09-4.47a9,9,0,0,0-.4-4.37,3.12,3.12,0,0,0-3.55-1.94,1.52,1.52,0,0,1-.52.12c-.46,0-.63-.61-.76-1.06a5.09,5.09,0,0,0-6.22-3.6,5.33,5.33,0,0,0-1.19.49,9.35,9.35,0,0,1-1.24.69c-1,.36-2.09,0-3.14.14-1.85.15-3.34,1.52-4.61,2.87a3.06,3.06,0,0,1-1,.82,3.52,3.52,0,0,1-1.12.15c-1.53,0-3.36.54-3.76,2a3,3,0,0,0,.11,1.69,6.39,6.39,0,0,0,5.87,4.36c1.25,0,2.27-.87,3.39-1.42a1.24,1.24,0,0,1,.53-.18,1.49,1.49,0,0,1,.66.16c2.15.81,4.53.44,6.82.31a3.18,3.18,0,0,1,1.47.14,2.69,2.69,0,0,1,1.14,1c1.81,2.44,1.36,5.81.83,8.81a2.49,2.49,0,0,0,1.86-.5,2.92,2.92,0,0,1-1.06,4,2.69,2.69,0,0,1-.38.19,2.14,2.14,0,0,0-.86.38,1.41,1.41,0,0,0-.34.73A8.7,8.7,0,0,0,544.07,147.74Z"/><path class="cls-40" d="M499.2,89.62a30.68,30.68,0,0,1-1.63,9c-1.09,2.79-3,5.32-3.3,8.31-.14,1.43.12,2.88,0,4.31a4.15,4.15,0,0,1-2.07,3.55,3.81,3.81,0,0,1-4.13-1.24,15.08,15.08,0,0,1-2.22-4,27.07,27.07,0,0,0-5.12-7.49c-1.93-1.76-3.77-3.62-5.52-5.56s-2.75-4.68-2.22-7.25c.34-1.64,1.34-3.24,1-4.89a8.35,8.35,0,0,0-1.29-2.54,10.31,10.31,0,0,1-.31-9.71c.92-1.82,2.44-3.52,2.31-5.56a7.19,7.19,0,0,0-.56-2.09c-.75-2-1.91-4.24-4-4.38-1.78-.13-3.17,1.39-4.66,2.37s-4.09,1-4.47-.72a72.55,72.55,0,0,1-1.46-8,50.3,50.3,0,0,1,25.34-27.37,12,12,0,0,1,3.38,4.81c-4.54,4.87-4.79,12.5-8.85,17.76-1.31,1.71-3,3.12-4.16,4.93s-1.7,4.25-.55,6.06c1.94,3.08,6.66,2,10,3.53,2.17,1,3.9,3.09,6.28,3.24,1.27.07,2.55-.45,3.79-.17,1.77.39,2.77,2.24,3.35,4C500.18,76.62,499.7,83.21,499.2,89.62Z"/><path class="cls-1" d="M500.6,2.52a50.7,50.7,0,0,1,12.68,1.64A7.77,7.77,0,0,1,517.15,6a3,3,0,0,1,.37,3.94A4.27,4.27,0,0,1,522,14.07a4.22,4.22,0,0,1-.81,2.7A7.88,7.88,0,0,1,525.59,21a4.67,4.67,0,0,1-.08,4.4c-1.35,2-4.28,1.91-6.69,1.67A93.1,93.1,0,0,0,489.1,29c-2.18.5-5,.88-6.24-1-1.45-2.06.37-4.78,2.09-6.61-1.59.19-2.83-1.67-2.57-3.26a6.25,6.25,0,0,1,2.81-3.74,17,17,0,0,0,3.71-3c-1.61-.13-2.5-2.21-1.88-3.7C488.54,4,497.26,2.51,500.6,2.52Z"/><path class="cls-41" d="M525.92,24.5a3.21,3.21,0,0,1-.41.88c-1.35,2-4.28,1.91-6.69,1.68A92.81,92.81,0,0,0,489.1,29c-2.11.47-4.76.85-6.08-.77l-.16-.18c-1.44-2.06.37-4.79,2.09-6.62-1.59.19-2.83-1.67-2.57-3.26a6.3,6.3,0,0,1,2.81-3.75,16.73,16.73,0,0,0,3.7-3c-1.6-.13-2.49-2.21-1.87-3.7C488.56,4,497.26,2.53,500.6,2.54a50.78,50.78,0,0,1,12.69,1.64,7.7,7.7,0,0,1,3.86,1.88,3,3,0,0,1,.37,3.94,4.28,4.28,0,0,1,3.66,6.79A8,8,0,0,1,525.59,21,5.21,5.21,0,0,1,525.92,24.5Z"/><path class="cls-5" d="M555.54,127c-2.32-10.91-11-19.46-14.1-30.18-.13-.47-1.61-2.81-1.36-3.22.54-.84,7-4.58,7.73-3.94,9.13,7.79,12.08,18.15,17.27,29s7.11,41.39,1.2,51.83c-1.43,2.54-2.5-7.64-5.41-7.83-7.22-.48-9-6.79-7.71-12.26C554.89,142.54,557.24,135.12,555.54,127Z"/><path class="cls-42" d="M552.73,52.74c-.07.23-.13.47-.19.71a4.27,4.27,0,0,1-3.31,2.9,12.55,12.55,0,0,1-4.61-.14c-.37,5,4.42,9.43,3.37,14.29-.85,3.89-5.08,6.1-6.76,9.72-.56,1.23-.82,2.59-1.49,3.77-1.42,2.49-4.34,3.65-7,4.63a3.89,3.89,0,0,1-1.93.35,4.07,4.07,0,0,1-2.07-1.33,39.2,39.2,0,0,1-6.42-7.54,13.17,13.17,0,0,1-1.91-9.49c.44-1.92,1.44-3.67,2.05-5.54s.76-4.08-.38-5.68c-.52-.73-1.28-1.27-1.78-2a2,2,0,0,1,0-2.48,2.7,2.7,0,0,1,1.52-.54l7.39-1A7.13,7.13,0,0,0,533.09,52c1-.94,1.25-2.86.08-3.61a26.59,26.59,0,0,1-10.52,4.21c-1.19-2.71-2.39-5.85-1.19-8.57a10.73,10.73,0,0,1,1.73-2.43l9.65-11.4a2.35,2.35,0,0,1,.7-.6A50.09,50.09,0,0,1,552.73,52.74Z"/><path class="cls-43" d="M475.86,118.24a38.16,38.16,0,0,0,2.82,8.3,27.7,27.7,0,0,0,2.94,2.79c.91.8,2.64-.61,3.64-1.38,2.25-1.74,1.1-7.19,2-10-1.65-1.09-2.92-.13-4.51-1.31a5.92,5.92,0,0,1-2.47-3,6,6,0,0,0-.3-1.18,3.1,3.1,0,0,0-.72-.89c-.42-.4-1.6-2-2.19-1.86s-1,2-1.08,2.55A13.56,13.56,0,0,0,475.86,118.24Z"/><path class="cls-44" d="M547.46,80.56c-.21-.43-.62-.91-1.07-.74a1,1,0,0,0-.47.55l-1.7,3.34-2.87-5.24c-.86-1.57-1.91-3.3-3.65-3.73a.66.66,0,0,0-.61.06c-.23.19-.15.55-.06.84l.71,2.08A10.1,10.1,0,0,0,532,75.55a1.3,1.3,0,0,0-1.08.3c-.35.4-.13,1,.1,1.48.78,1.54,1.62,3.06,2.5,4.54-.28-.57-1.24-.35-1.5.22a2.43,2.43,0,0,0,.17,1.83,28.28,28.28,0,0,0,7.51,10.92c.42.38,1,.76,1.5.54a1.74,1.74,0,0,0,.7-.92A8,8,0,0,1,545.09,91C548.85,88.81,549.4,84.52,547.46,80.56Z"/><path class="cls-45" d="M526,25.08a6.81,6.81,0,0,1-.34,1.17c-.12.48-.09,1-.18,1.46a4.51,4.51,0,0,1-3.14,3,18.15,18.15,0,0,1-5.28.78c-3.72.2-7.45.39-11.17.56a68.82,68.82,0,0,1-7.6.06c-2.18-.15-4.34-.52-6.52-.48-2.51,0-5.23.57-7.32-.79A3.19,3.19,0,0,1,483.05,29a2.08,2.08,0,0,1,0-.86c1.32,1.62,4,1.24,6.08.77A92.81,92.81,0,0,1,518.85,27c2.41.23,5.34.34,6.69-1.68a3.21,3.21,0,0,0,.41-.88A1,1,0,0,1,526,25.08Z"/><path class="cls-46" d="M525.92,24.5a3.21,3.21,0,0,1-.41.88c-1.35,2-4.28,1.91-6.69,1.68A92.81,92.81,0,0,0,489.1,29c-2.11.47-4.76.85-6.08-.77a1.81,1.81,0,0,1,.73-1.26,3.32,3.32,0,0,1,.89-.38,86,86,0,0,1,13.11-3.34,62.87,62.87,0,0,1,6.43-.54c1.78-.05,3.57-.05,5.36-.05q4.66.06,9.32.52c1.53.15,3.07.34,4.59.56C524.19,23.78,525.54,23.74,525.92,24.5Z"/><path class="cls-47" d="M497.83,11h16.58a5.21,5.21,0,0,0,3.14-.66,1.42,1.42,0,0,0,.55-1.84,1.76,1.76,0,0,0-.92-.56c-4.77-1.7-10-1.67-15-1.37a29.13,29.13,0,0,0-7,1c-1.44.44-5.23,1.82-5.44,3.58,1.09.27,2.73-.16,3.91-.2C495,11,496.42,11,497.83,11Z"/><path class="cls-48" d="M497.54,18.19c2.53-.35,5.08-.46,7.63-.57,4.52-.2,9-.39,13.57-.34a4.15,4.15,0,0,0,2-.3,1.4,1.4,0,0,0,.77-1.67c-.29-.68-1.18-.82-1.92-.86a146,146,0,0,0-18.59.19,34.6,34.6,0,0,0-5.45.71A41.38,41.38,0,0,0,486.41,19c-.73.36-2.16,1.27-.83,1.86,1,.42,2.84-.61,3.78-.88A57.2,57.2,0,0,1,497.54,18.19Z"/><rect class="cls-49" x="483.43" y="362.38" width="133.33" height="28.44"/><rect class="cls-18" x="483.67" y="366.15" width="71.66" height="20.88"/><rect class="cls-1" x="497.67" y="341.88" width="113.88" height="20.65"/><rect class="cls-50" x="497.67" y="341.88" width="113.88" height="20.65"/><rect class="cls-18" x="497.66" y="344.11" width="68.68" height="16.44"/><rect class="cls-1" x="505.49" y="326.42" width="91.28" height="15.5"/><rect class="cls-51" x="505.49" y="326.42" width="91.28" height="15.5"/><rect class="cls-18" x="505.49" y="327.27" width="42" height="13.47"/><path class="cls-52" d="M535.38,158.93c-.87.93-2.5,1.09-3.87,1-12.34-.75-23.32-8-32.49-16.32a154.25,154.25,0,0,1-11.2-11.24c-1.21-1.34-3.31-2.83-3-4.81a2.94,2.94,0,0,1,.71-1.51c1.09-.33,2-.33,2.43.32,15.89,25.63,43,28.6,45.85,29.81A3,3,0,0,1,535.38,158.93Z"/><path class="cls-53" d="M409.84,313.2v-12c0-4.53,4-8.24,8.94-8.24h0c4.92,0,9,3.71,9,8.24v12Z"/><rect class="cls-5" x="402.83" y="310.87" width="32.67" height="24.89"/><path class="cls-54" d="M419.17,326.43h0a2.34,2.34,0,0,1-2.33-2.34v-4.66a2.34,2.34,0,0,1,2.33-2.34h0a2.34,2.34,0,0,1,2.33,2.34v4.66A2.34,2.34,0,0,1,419.17,326.43Z"/><rect class="cls-32" x="402.83" y="331.1" width="32.67" height="4.67"/></g></g></svg>